<svg width="275" height="78" viewBox="0 0 275 78" fill="none" xmlns="http://www.w3.org/2000/svg">
<path d="M28.9299 18.7333H44.7197C53.4361 24.8805 43.5957 39.7557 32.8774 38.2575C29.025 37.3959 22.9386 28.4677 15.3572 26.5924C31.7699 39.415 37.8401 48.8669 23.0899 66.4316C24.5609 63.5276 25.0669 61.7069 24.7662 57.7322H8.81417V37.5655H19.4669C10.7652 35.6221 8.80727 24.5571 0 21.353C16.3693 19.4318 21.9986 22.4969 28.7677 31.7824L28.9299 18.7333Z" fill="#B72621"/>
<path d="M50.9383 70.3365H30.2277C27.4516 70.2078 27.8276 68.6873 29.9033 65.6902C46.8071 44.7893 50.7765 33.6729 49.3701 15.9653C49.2858 18.2671 49.1843 19.5148 48.4509 21.3036C40.4286 12.3631 47.4429 6.33472 46.8286 0C53.9138 5.51747 59.3512 12.6787 52.9931 37.2689H71V57.6828H50.9383V70.3365Z" fill="#189633"/>
<ellipse cx="38.1238" cy="29.4595" rx="4.59634" ry="4.10255" fill="#F8EAEC"/>
<path d="M92.475 54.9H85.925L84.875 58H80.4L86.75 40.45H91.7L98.05 58H93.525L92.475 54.9ZM91.375 51.6L89.2 45.175L87.05 51.6H91.375ZM114.233 44.05L105.483 64.625H100.883L104.083 57.525L98.4076 44.05H103.183L106.408 52.775L109.608 44.05H114.233ZM129.554 44.05V58H125.279V56.1C124.845 56.7167 124.254 57.2167 123.504 57.6C122.77 57.9667 121.954 58.15 121.054 58.15C119.987 58.15 119.045 57.9167 118.229 57.45C117.412 56.9667 116.779 56.275 116.329 55.375C115.879 54.475 115.654 53.4167 115.654 52.2V44.05H119.904V51.625C119.904 52.5583 120.145 53.2833 120.629 53.8C121.112 54.3167 121.762 54.575 122.579 54.575C123.412 54.575 124.07 54.3167 124.554 53.8C125.037 53.2833 125.279 52.5583 125.279 51.625V44.05H129.554ZM141.574 58L137.924 51.375H136.899V58H132.624V40.45H139.799C141.183 40.45 142.358 40.6917 143.324 41.175C144.308 41.6583 145.041 42.325 145.524 43.175C146.008 44.0083 146.249 44.9417 146.249 45.975C146.249 47.1417 145.916 48.1833 145.249 49.1C144.599 50.0167 143.633 50.6667 142.349 51.05L146.399 58H141.574ZM136.899 48.35H139.549C140.333 48.35 140.916 48.1583 141.299 47.775C141.699 47.3917 141.899 46.85 141.899 46.15C141.899 45.4833 141.699 44.9583 141.299 44.575C140.916 44.1917 140.333 44 139.549 44H136.899V48.35ZM148.083 51C148.083 49.5667 148.349 48.3083 148.883 47.225C149.433 46.1417 150.174 45.3083 151.108 44.725C152.041 44.1417 153.083 43.85 154.233 43.85C155.216 43.85 156.074 44.05 156.808 44.45C157.558 44.85 158.133 45.375 158.533 46.025V44.05H162.808V58H158.533V56.025C158.116 56.675 157.533 57.2 156.783 57.6C156.049 58 155.191 58.2 154.208 58.2C153.074 58.2 152.041 57.9083 151.108 57.325C150.174 56.725 149.433 55.8833 148.883 54.8C148.349 53.7 148.083 52.4333 148.083 51ZM158.533 51.025C158.533 49.9583 158.233 49.1167 157.633 48.5C157.049 47.8833 156.333 47.575 155.483 47.575C154.633 47.575 153.908 47.8833 153.308 48.5C152.724 49.1 152.433 49.9333 152.433 51C152.433 52.0667 152.724 52.9167 153.308 53.55C153.908 54.1667 154.633 54.475 155.483 54.475C156.333 54.475 157.049 54.1667 157.633 53.55C158.233 52.9333 158.533 52.0917 158.533 51.025ZM174.426 58L170.176 52.15V58H165.901V39.5H170.176V49.725L174.401 44.05H179.676L173.876 51.05L179.726 58H174.426ZM187.03 58.2C185.813 58.2 184.73 57.9917 183.78 57.575C182.83 57.1583 182.08 56.5917 181.53 55.875C180.98 55.1417 180.671 54.325 180.605 53.425H184.83C184.88 53.9083 185.105 54.3 185.505 54.6C185.905 54.9 186.396 55.05 186.98 55.05C187.513 55.05 187.921 54.95 188.205 54.75C188.505 54.5333 188.655 54.2583 188.655 53.925C188.655 53.525 188.446 53.2333 188.03 53.05C187.613 52.85 186.938 52.6333 186.005 52.4C185.005 52.1667 184.171 51.925 183.505 51.675C182.838 51.4083 182.263 51 181.78 50.45C181.296 49.8833 181.055 49.125 181.055 48.175C181.055 47.375 181.271 46.65 181.705 46C182.155 45.3333 182.805 44.8083 183.655 44.425C184.521 44.0417 185.546 43.85 186.73 43.85C188.48 43.85 189.855 44.2833 190.855 45.15C191.871 46.0167 192.455 47.1667 192.605 48.6H188.655C188.588 48.1167 188.371 47.7333 188.005 47.45C187.655 47.1667 187.188 47.025 186.605 47.025C186.105 47.025 185.721 47.125 185.455 47.325C185.188 47.5083 185.055 47.7667 185.055 48.1C185.055 48.5 185.263 48.8 185.68 49C186.113 49.2 186.78 49.4 187.68 49.6C188.713 49.8667 189.555 50.1333 190.205 50.4C190.855 50.65 191.421 51.0667 191.905 51.65C192.405 52.2167 192.663 52.9833 192.68 53.95C192.68 54.7667 192.446 55.5 191.98 56.15C191.53 56.7833 190.871 57.2833 190.005 57.65C189.155 58.0167 188.163 58.2 187.03 58.2ZM203.87 43.9C205.47 43.9 206.753 44.4333 207.72 45.5C208.687 46.55 209.17 48 209.17 49.85V58H204.92V50.425C204.92 49.4917 204.678 48.7667 204.195 48.25C203.712 47.7333 203.062 47.475 202.245 47.475C201.428 47.475 200.778 47.7333 200.295 48.25C199.812 48.7667 199.57 49.4917 199.57 50.425V58H195.295V39.5H199.57V45.925C200.003 45.3083 200.595 44.8167 201.345 44.45C202.095 44.0833 202.937 43.9 203.87 43.9ZM211.291 51C211.291 49.5667 211.557 48.3083 212.091 47.225C212.641 46.1417 213.382 45.3083 214.316 44.725C215.249 44.1417 216.291 43.85 217.441 43.85C218.424 43.85 219.282 44.05 220.016 44.45C220.766 44.85 221.341 45.375 221.741 46.025V44.05H226.016V58H221.741V56.025C221.324 56.675 220.741 57.2 219.991 57.6C219.257 58 218.399 58.2 217.416 58.2C216.282 58.2 215.249 57.9083 214.316 57.325C213.382 56.725 212.641 55.8833 212.091 54.8C211.557 53.7 211.291 52.4333 211.291 51ZM221.741 51.025C221.741 49.9583 221.441 49.1167 220.841 48.5C220.257 47.8833 219.541 47.575 218.691 47.575C217.841 47.575 217.116 47.8833 216.516 48.5C215.932 49.1 215.641 49.9333 215.641 51C215.641 52.0667 215.932 52.9167 216.516 53.55C217.116 54.1667 217.841 54.475 218.691 54.475C219.541 54.475 220.257 54.1667 220.841 53.55C221.441 52.9333 221.741 52.0917 221.741 51.025Z" fill="#189633"/>
</svg>
