<svg width="71" height="71" viewBox="0 0 71 71" fill="none" xmlns="http://www.w3.org/2000/svg">
<path d="M28.9299 18.7333H44.7197C53.4361 24.8805 43.5957 39.7557 32.8774 38.2575C29.025 37.3959 22.9386 28.4677 15.3572 26.5924C31.7699 39.415 37.8401 48.8669 23.0899 66.4316C24.5609 63.5276 25.0669 61.7069 24.7662 57.7322H8.81417V37.5655H19.4669C10.7652 35.6221 8.80727 24.5571 0 21.353C16.3693 19.4318 21.9986 22.4969 28.7677 31.7824L28.9299 18.7333Z" fill="#B72621"/>
<path d="M50.9383 70.3365H30.2277C27.4516 70.2078 27.8276 68.6873 29.9033 65.6902C46.8071 44.7893 50.7765 33.6729 49.3701 15.9653C49.2858 18.2671 49.1843 19.5148 48.4509 21.3036C40.4286 12.3631 47.4429 6.33472 46.8286 0C53.9138 5.51747 59.3512 12.6787 52.9931 37.2689H71V57.6828H50.9383V70.3365Z" fill="#189633"/>
<ellipse cx="38.1238" cy="29.4594" rx="4.59634" ry="4.10255" fill="#F8EAEC"/>
</svg>
