<svg width="21" height="21" viewBox="0 0 21 21" fill="none" xmlns="http://www.w3.org/2000/svg">
<path d="M20.1194 14.6344L15.589 12.6928C15.3955 12.6103 15.1804 12.593 14.9761 12.6433C14.7718 12.6936 14.5894 12.809 14.4564 12.9719L12.4501 15.4232C9.30135 13.9386 6.76735 11.4046 5.28276 8.25587L7.73402 6.24955C7.89731 6.11675 8.01288 5.93436 8.06324 5.72999C8.11361 5.52563 8.09601 5.31042 8.01313 5.11695L6.07153 0.586562C5.98057 0.378005 5.81968 0.207726 5.61661 0.105086C5.41355 0.00244526 5.18103 -0.0261228 4.95916 0.0243077L0.752368 0.995106C0.538457 1.0445 0.347604 1.16495 0.210961 1.33678C0.0743167 1.50861 -4.92765e-05 1.72169 2.44973e-08 1.94123C2.44973e-08 12.3166 8.40954 20.71 18.7688 20.71C18.9884 20.7101 19.2015 20.6358 19.3735 20.4992C19.5454 20.3625 19.6659 20.1716 19.7153 19.9576L20.6861 15.7508C20.7362 15.5279 20.707 15.2944 20.6036 15.0907C20.5002 14.8869 20.3289 14.7256 20.1194 14.6344Z" fill="black" fill-opacity="0.6"/>
</svg>
