<svg width="21" height="19" viewBox="0 0 21 19" fill="none" xmlns="http://www.w3.org/2000/svg">
<path d="M21 8.55094V17.4586C21 17.661 20.9547 17.8614 20.8668 18.0484C20.7788 18.2355 20.6499 18.4054 20.4874 18.5485C20.3249 18.6917 20.132 18.8052 19.9197 18.8827C19.7074 18.9601 19.4798 19 19.25 19H19.2498L13.9993 18.9993C13.7672 18.9993 13.5447 18.9181 13.3806 18.7735C13.2165 18.629 13.1244 18.433 13.1244 18.2286V12.0628H7.87436V18.2286C7.87437 18.433 7.78219 18.629 7.61812 18.7735C7.45405 18.9181 7.23152 18.9993 6.99947 18.9993L1.75022 19C1.52039 19 1.2928 18.9602 1.08045 18.8827C0.868109 18.8053 0.675164 18.6917 0.512639 18.5486C0.350113 18.4054 0.221189 18.2355 0.13323 18.0485C0.0452707 17.8615 -8.63766e-07 17.661 0 17.4586V8.55089C0.000212706 8.33615 0.051265 8.12381 0.149897 7.92742C0.248529 7.73103 0.392573 7.55492 0.57283 7.41034L9.32208 0.403137C9.64347 0.143856 10.0635 2.60395e-05 10.4993 3.53539e-09C10.9351 -2.60325e-05 11.3551 0.143753 11.6765 0.402996L20.4273 7.41038C20.6075 7.555 20.7515 7.73111 20.8501 7.92749C20.9487 8.12388 20.9998 8.33621 21 8.55094Z" fill="black" fill-opacity="0.6"/>
</svg>
